<?xml version="1.0" standalone="no"?>
<!DOCTYPE svg PUBLIC "-//W3C//DTD SVG 20010904//EN" "http://www.w3.org/TR/2001/REC-SVG-20010904/DTD/svg10.dtd">
<svg version="1.0" xmlns="http://www.w3.org/2000/svg" width="300.000000pt" height="400.000000pt" viewBox="0 0 300.000000 400.000000" preserveAspectRatio="xMidYMid meet">
<metadata>
Created by potrace 1.10, written by Peter Selinger 2001-2011
</metadata>
<!-- Orange background rectangle -->
<rect width="100%" height="100%" fill="#FEF3C7"/>
<g transform="translate(0.000000,400.000000) scale(0.100000,-0.100000)" fill="#F59E0B" stroke="none">
<path d="M1378 3383 c-55 -60 -105 -264 -115 -475 -9 -202 20 -444 68 -554 17 -41 19 -42 72 -46 l55 -3 6 105 c10 159 6 962 -5 982 -14 26 -52 22 -81 -9z m51 -119 c1 -95 0 -85 6 -209 7 -133 7 -175 1 -410 -7 -305 -10 -324 -48 -310 -13 5 -30 41 -30 65 0 3 -4 10 -10 17 -5 7 -7 16 -4 22 3 5 2 11 -3 13 -5 1 -12 21 -15 43 -3 22 -8 51 -11 65 -18 93 -21 490 -4 490 3 0 9 31 13 70 7 83 33 152 72 197 15 18 29 31 31 30 1 -2 2 -39 2 -83z"/>
<path d="M1356 2183 c3 -65 6 -128 8 -140 5 -35 -25 -29 -66 13 -20 19 -42 49 -48 65 -12 29 -33 38 -45 19 -3 -5 0 -10 9 -10 15 0 79 -80 71 -89 -3 -3 -21 12 -39 34 -26 30 -41 38 -69 39 -19 1 -33 4 -30 8 6 10 -15 10 -177 -2 -119 -9 -288 -18 -359 -19 -15 -1 -21 -5 -15 -10 5 -5 122 -11 261 -13 139 -2 255 -7 259 -11 20 -20 -30 -26 -256 -32 -135 -4 -249 -11 -253 -15 -9 -8 216 -20 395 -20 76 0 127 4 124 9 -4 5 -1 22 6 38 6 15 10 32 9 37 -3 12 52 -3 61 -17 4 -7 8 -8 8 -3 0 6 9 1 20 -10 29 -29 48 -44 57 -44 4 0 19 -9 32 -19 l23 -18 -46 -29 c-25 -16 -46 -32 -46 -36 0 -4 -10 -16 -22 -28 -24 -22 -63 -27 -74 -9 -4 8 -9 7 -15 -2 -7 -11 -9 -10 -9 4 0 19 20 19 -340 2 -47 -2 -109 -4 -138 -4 -97 -2 -44 -19 60 -20 106 -1 397 -17 479 -26 44 -5 47 -4 59 25 14 33 85 100 106 100 8 0 11 -9 9 -22 -2 -13 -6 -113 -10 -223 -3 -110 -10 -258 -15 -330 -6 -96 -5 -138 4 -165 13 -37 63 -110 75 -110 15 0 61 57 76 94 15 35 16 56 6 170 -14 175 -33 587 -27 593 7 8 289 4 501 -7 368 -19 506 -27 675 -41 157 -13 197 -6 255 44 46 40 44 53 -21 95 -43 29 -71 37 -114 34 -8 -1 -71 -6 -140 -12 -69 -6 -186 -15 -260 -20 -74 -6 -155 -12 -180 -14 -41 -5 -93 -8 -310 -21 -41 -2 -150 -7 -242 -11 l-168 -6 0 49 c0 26 -3 91 -6 144 l-7 97 -38 -5 c-23 -3 -45 -1 -53 6 -12 10 -14 -4 -10 -106z m71 -42 c2 -56 7 -110 12 -120 6 -10 7 -35 4 -57 -8 -56 -10 -157 -4 -169 3 -5 6 -37 7 -70 1 -33 5 -105 9 -160 15 -194 7 -314 -27 -382 l-11 -22 -19 21 c-20 24 -20 22 -23 63 -2 17 -4 32 -5 35 -1 3 -2 9 -1 14 1 5 4 59 7 120 3 61 7 143 9 181 2 39 6 113 8 165 2 52 5 100 7 105 1 6 1 13 0 18 -5 14 -8 27 -9 42 0 8 -11 23 -23 35 -12 11 -18 20 -14 20 5 0 3 7 -4 15 -11 13 -10 14 2 10 19 -8 49 21 42 39 -3 8 -1 17 4 20 6 3 7 20 2 40 -4 18 -3 41 2 50 6 10 5 16 -1 16 -5 0 -8 12 -7 28 2 15 4 33 5 40 0 8 7 12 14 10 8 -3 13 -36 14 -107z m1415 -111 c42 -20 42 -38 2 -55 -75 -31 -216 -34 -509 -10 -44 3 -99 7 -123 9 -23 1 -45 5 -48 8 -3 4 -18 3 -33 -2 -16 -4 -35 -4 -42 1 -15 9 -2 12 78 13 23 1 45 4 49 8 4 5 14 2 22 -5 9 -6 13 -7 9 -1 -6 11 44 16 166 17 31 1 57 3 57 7 0 3 17 6 38 6 56 1 205 14 210 19 8 8 98 -3 124 -15z m62 -61 c-15 -25 -90 -49 -149 -47 l-60 1 68 8 c39 4 81 16 100 28 36 23 52 27 41 10z m-1411 -724 c-9 -44 -30 -90 -47 -105 -21 -17 -20 -14 9 44 17 34 25 67 26 105 1 52 2 53 9 21 5 -19 6 -48 3 -65z"/>
<path d="M400 2117 c0 -1 -15 -40 -34 -85 -32 -76 -33 -82 -15 -82 11 0 22 7 25 15 4 10 20 15 50 15 32 0 44 -4 44 -15 0 -9 9 -15 24 -15 l24 0 -37 85 c-30 70 -40 85 -58 85 -13 0 -23 -1 -23 -3z m38 -72 c16 -35 16 -35 -13 -35 -27 0 -28 3 -19 38 8 29 18 28 32 -3z"/>
<path d="M1118 1979 c-2 -6 -98 -14 -261 -21 -260 -12 -347 -28 -149 -28 194 0 407 -12 414 -24 12 -18 19 0 9 26 -5 15 -5 30 0 41 7 11 6 17 0 17 -5 0 -11 -5 -13 -11z"/>
<path d="M359 1806 c-2 -3 -4 -33 -3 -66 l2 -62 83 0 84 0 0 64 c0 49 -3 63 -15 63 -11 0 -15 -12 -15 -45 0 -34 -4 -45 -17 -48 -15 -3 -18 4 -18 42 0 34 -4 46 -15 46 -11 0 -15 -12 -15 -45 0 -38 -3 -45 -19 -45 -17 0 -20 8 -23 47 -3 41 -15 62 -29 49z"/>
<path d="M1549 1767 c-1 -1 -2 -32 -3 -69 l-1 -68 92 0 93 0 0 -200 0 -200 83 0 82 0 -3 200 -3 200 93 0 93 0 0 70 0 70 -262 0 c-145 -1 -263 -2 -264 -3z m401 -38 c0 -4 13 -4 30 1 32 9 60 -7 60 -35 0 -20 -12 -25 -81 -30 -98 -7 -99 -8 -102 -215 l-2 -175 -45 0 -45 0 -1 169 c-1 161 -2 170 -23 193 -13 12 -35 23 -50 24 -14 1 -33 2 -41 3 -8 2 -25 3 -36 4 -22 2 -37 31 -25 50 3 6 56 10 125 11 65 0 120 1 121 3 8 7 115 4 115 -3z"/>
<path d="M2393 1763 l-233 -3 0 -265 0 -265 235 0 235 0 0 65 0 65 -152 0 -153 0 1 42 1 43 129 5 129 5 1 57 1 57 -128 -6 -129 -6 0 36 0 37 83 2 c45 1 112 2 150 2 l67 1 0 68 c0 37 -1 66 -2 65 -2 -2 -108 -4 -235 -5z m179 -39 c13 -4 20 -27 13 -45 0 -1 -58 -4 -129 -8 -118 -7 -130 -9 -145 -30 -21 -27 -16 -68 9 -93 14 -13 40 -18 116 -20 90 -3 97 -5 99 -23 1 -20 -4 -21 -92 -20 -111 0 -141 -15 -150 -77 -7 -56 25 -83 100 -83 31 0 57 -3 57 -6 0 -3 23 -3 50 1 28 4 53 3 56 -1 2 -5 11 -6 18 -3 9 3 14 -3 14 -19 0 -19 -7 -26 -27 -29 -41 -6 -350 -2 -357 4 -6 7 -7 43 -4 251 1 76 0 140 -2 143 -11 10 5 53 21 56 28 6 335 8 353 2z"/>
<path d="M694 1738 c3 -13 6 -134 6 -270 l0 -248 193 0 c105 0 209 5 229 10 20 6 50 26 67 46 27 30 31 42 31 90 0 50 -3 59 -34 90 -19 19 -41 34 -50 34 -26 0 -18 15 14 27 57 22 77 114 37 174 -42 63 -67 69 -296 69 l-203 0 6 -22z m415 -27 c40 -22 58 -44 64 -78 6 -31 -7 -57 -55 -105 -21 -21 -23 -43 -5 -58 6 -6 21 -18 33 -28 49 -41 50 -114 3 -154 -17 -15 -39 -27 -48 -27 -125 -6 -321 -8 -338 -4 -18 4 -23 12 -23 42 -1 20 -2 121 -3 226 l-2 189 25 6 c51 12 324 5 349 -9z"/>
<path d="M862 1660 c-12 -12 -22 -26 -23 -33 0 -7 -3 -24 -5 -39 -3 -18 3 -35 18 -52 20 -23 31 -27 95 -28 68 -2 73 0 95 27 33 41 37 57 22 86 -21 42 -57 59 -122 59 -45 0 -63 -5 -80 -20z m166 -32 c17 -17 15 -54 -4 -72 -11 -12 -35 -16 -85 -16 l-69 0 0 50 0 50 73 0 c43 0 78 -5 85 -12z"/>
<path d="M940 1480 c-64 -6 -100 -24 -101 -48 0 -9 -2 -31 -3 -48 -3 -23 3 -39 21 -58 21 -23 32 -26 89 -26 77 0 118 20 133 62 25 70 -43 127 -139 118z m95 -44 c19 -7 21 -85 3 -91 -7 -2 -48 -5 -90 -8 l-78 -4 0 52 c0 28 2 54 4 56 6 6 144 2 161 -5z"/>
<path d="M484 1620 c-48 -36 -64 -37 -94 -5 -29 30 -40 32 -33 5 3 -12 21 -33 39 -47 43 -32 43 -43 -1 -43 -29 0 -35 -4 -35 -21 0 -17 4 -20 23 -15 12 3 50 6 85 6 48 0 62 3 62 15 0 9 -9 15 -24 15 -13 0 -29 6 -36 14 -9 12 -5 19 24 38 23 15 36 31 36 46 0 12 -1 22 -3 22 -2 0 -21 -13 -43 -30z"/>
<path d="M440 1436 c-100 -42 -99 -57 4 -102 44 -19 83 -34 88 -34 15 0 8 20 -12 37 -24 21 -28 81 -5 89 15 6 22 45 8 43 -5 0 -42 -15 -83 -33z m40 -46 c0 -26 -22 -35 -51 -19 -22 11 -22 12 -4 25 28 21 55 18 55 -6z"/>
<path d="M368 1283 c-2 -5 -2 -36 0 -70 3 -46 8 -63 18 -63 8 0 14 10 14 25 0 24 2 25 70 25 63 0 70 2 70 20 0 18 -7 20 -75 20 l-75 0 6 25 c5 19 2 25 -9 25 -9 0 -17 -3 -19 -7z"/>
</g>
</svg>